<?xml version="1.0" encoding="UTF-8"?>
<svg width="19px" height="21px" viewBox="0 0 19 21" version="1.1" xmlns="http://www.w3.org/2000/svg" xmlns:xlink="http://www.w3.org/1999/xlink">
    <!-- Generator: Sketch 52.6 (67491) - http://www.bohemiancoding.com/sketch -->
    <title>New/Icon/favourite/selected Copy</title>
    <desc>Created with Sketch.</desc>
    <g id="Symbols" stroke="none" stroke-width="1" fill="none" fill-rule="evenodd">
        <g id="02-COMPONENTS/DESKTOP/Apart-detail" transform="translate(-91.000000, -94.000000)" fill="#3C3C3B" fill-rule="nonzero">
            <g id="Group-2">
                <g id="Group" transform="translate(53.000000, 94.000000)">
                    <g id="New/Icon/favourite/selected-Copy" transform="translate(38.000000, 0.000000)">
                        <path d="M13.7591667,15.6656627 L6.23833333,11.2853916 C6.29638889,11.0481928 6.33333333,10.8004518 6.33333333,10.5474398 C6.33333333,10.2944277 6.29638889,10.0466867 6.23833333,9.80948795 L13.68,5.47138554 C14.2447222,5.99849398 14.9994444,6.3253012 15.8333333,6.3253012 C17.5802778,6.3253012 19,4.90737952 19,3.1626506 C19,1.41792169 17.5802778,0 15.8333333,0 C14.0863889,0 12.6666667,1.41792169 12.6666667,3.1626506 C12.6666667,3.41566265 12.7036111,3.66340361 12.7616667,3.90060241 L5.32,8.23870482 C4.75527778,7.71159639 4.00055556,7.38478916 3.16666667,7.38478916 C1.41972222,7.38478916 0,8.80271084 0,10.5474398 C0,12.2921687 1.41972222,13.7100904 3.16666667,13.7100904 C4.00055556,13.7100904 4.75527778,13.3832831 5.32,12.8561747 L12.8408333,17.2364458 C12.7880556,17.4578313 12.7563889,17.689759 12.7563889,17.9269578 C12.7563889,19.624247 14.1338889,21 15.8333333,21 C17.5327778,21 18.9102778,19.624247 18.9102778,17.9269578 C18.9102778,16.2296687 17.5327778,14.8539157 15.8333333,14.8539157 C15.0311111,14.8539157 14.3080556,15.1649096 13.7591667,15.6656627 Z" id="Path"></path>
                    </g>
                </g>
            </g>
        </g>
    </g>
</svg>