<?xml version="1.0" encoding="UTF-8"?> <svg xmlns="http://www.w3.org/2000/svg" xmlns:xlink="http://www.w3.org/1999/xlink" width="11px" height="19px" viewBox="0 0 11 19"><!-- Generator: Sketch 61.2 (89653) - https://sketch.com --><title>Fill 5</title><desc>Created with Sketch.</desc><g id="Symbols" stroke="none" stroke-width="1" fill="none" fill-rule="evenodd"><g id="Footer" transform="translate(-137.000000, -29.000000)" fill="#FEFEFE"><g transform="translate(0.000000, 1.000000)" id="Group-15"><g transform="translate(101.000000, 27.500000)"><path d="M39.0426,19.2646 L39.0566,11.2116 L36.9646,11.2116 C36.6926,11.2116 36.4716,10.9926 36.4706,10.7206 L36.4605966,8.1246 C36.4596,7.8516 36.6806,7.6296 36.9546,7.6296 L39.0426,7.6296 L39.0426,5.1216 C39.0426,2.2106 40.8206,0.6256 43.4166,0.6256 L45.5476,0.6256 C45.8196,0.6256 46.0406,0.8466 46.0406,1.1196 L46.0406,3.3076 C46.0406,3.5806 45.8196,3.8016 45.5476,3.8016 L44.2396,3.8026 C42.8276,3.8026 42.5546,4.4736 42.5546,5.4576 L42.5546,7.6296 L45.6576,7.6296 C45.9526,7.6296 46.1826,7.8876 46.1476,8.1806 L45.8396,10.7766 C45.8106,11.0246 45.5996,11.2126 45.3496,11.2126 L42.5686,11.2126 L42.5546,19.2646" id="Fill-5"></path></g></g></g></g></svg> 