<?xml version="1.0" encoding="UTF-8"?> <svg xmlns="http://www.w3.org/2000/svg" xmlns:xlink="http://www.w3.org/1999/xlink" width="20px" height="19px" viewBox="0 0 20 19"><!-- Generator: Sketch 61.2 (89653) - https://sketch.com --><title>Group</title><desc>Created with Sketch.</desc><g id="Symbols" stroke="none" stroke-width="1" fill="none" fill-rule="evenodd"><g id="Footer" transform="translate(-170.000000, -29.000000)" fill="#FEFEFE"><g transform="translate(0.000000, 1.000000)" id="Group-15"><g transform="translate(101.000000, 27.500000)"><g id="Group" transform="translate(69.576200, 0.625700)"><path d="M13.086,-1.77635684e-15 L5.552,-1.77635684e-15 C2.491,-1.77635684e-15 5.68434189e-14,2.491 5.68434189e-14,5.553 L5.68434189e-14,13.086 C5.68434189e-14,16.148 2.491,18.639 5.552,18.639 L13.086,18.639 C16.148,18.639 18.639,16.148 18.639,13.086 L18.639,5.553 C18.639,2.491 16.148,-1.77635684e-15 13.086,-1.77635684e-15 L13.086,-1.77635684e-15 Z M16.764,13.086 C16.764,15.117 15.117,16.764 13.086,16.764 L5.552,16.764 C3.521,16.764 1.875,15.117 1.875,13.086 L1.875,5.553 C1.875,3.522 3.521,1.875 5.552,1.875 L13.086,1.875 C15.117,1.875 16.764,3.522 16.764,5.553 L16.764,13.086 Z" id="Fill-7"></path><path d="M9.3191,4.4988 C6.6611,4.4988 4.4981,6.6618 4.4981,9.3198 C4.4981,11.9778 6.6611,14.1398 9.3191,14.1398 C11.9771,14.1398 14.1401,11.9778 14.1401,9.3198 C14.1401,6.6618 11.9771,4.4988 9.3191,4.4988 M9.3191,12.2648 C7.6921,12.2648 6.3731,10.9468 6.3731,9.3198 C6.3731,7.6928 7.6921,6.3738 9.3191,6.3738 C10.9461,6.3738 12.2651,7.6928 12.2651,9.3198 C12.2651,10.9468 10.9461,12.2648 9.3191,12.2648" id="Fill-9"></path></g></g></g></g></g></svg> 