<?xml version="1.0" encoding="UTF-8"?> <svg xmlns="http://www.w3.org/2000/svg" xmlns:xlink="http://www.w3.org/1999/xlink" width="14px" height="20px" viewBox="0 0 14 20"><!-- Generator: Sketch 61.2 (89653) - https://sketch.com --><title>Fill 13</title><desc>Created with Sketch.</desc><g id="Symbols" stroke="none" stroke-width="1" fill="none" fill-rule="evenodd"><g id="Footer" transform="translate(-212.000000, -28.000000)" fill="#FEFEFE"><g transform="translate(0.000000, 1.000000)" id="Group-15"><g transform="translate(101.000000, 27.500000)"><path d="M124.4038,5.0285 C124.3358,4.7755 124.1988,4.5055 124.0978,4.2695 C122.8848,1.3555 120.2348,0.3105 118.0948,0.3105 C115.2308,0.3105 112.0758,2.2315 111.6548,6.1905 L111.6548,6.9985 C111.6548,7.0325 111.6658,7.3355 111.6818,7.4885 C111.9188,9.3745 113.4078,11.3795 114.5198,13.2665 C115.7158,15.2885 116.9568,17.2765 118.1858,19.2645 C118.9448,17.9665 119.7008,16.6525 120.4418,15.3885 C120.6438,15.0185 120.8788,14.6485 121.0798,14.2945 C121.2148,14.0585 121.4728,13.8225 121.5898,13.6035 C122.7858,11.4135 124.7128,9.2065 124.7128,7.0325 L124.7128,6.1395 C124.7128,5.9045 124.4198,5.0785 124.4038,5.0285 M118.1478,9.0885 C117.3048,9.0885 116.3838,8.6675 115.9288,7.5045 C115.8608,7.3195 115.8668,6.9485 115.8668,6.9145 L115.8668,6.3915 C115.8668,4.9105 117.1248,4.2355 118.2198,4.2355 C119.5678,4.2355 120.6108,5.3145 120.6108,6.6625 C120.6108,8.0105 119.4958,9.0885 118.1478,9.0885" id="Fill-13"></path></g></g></g></g></svg> 