<?xml version="1.0" encoding="UTF-8"?> <svg xmlns="http://www.w3.org/2000/svg" xmlns:xlink="http://www.w3.org/1999/xlink" width="18px" height="15px" viewBox="0 0 18 15"><!-- Generator: Sketch 61.2 (89653) - https://sketch.com --><title>Fill 3</title><desc>Created with Sketch.</desc><g id="Symbols" stroke="none" stroke-width="1" fill="none" fill-rule="evenodd"><g id="Footer" transform="translate(-101.000000, -31.000000)" fill="#FEFEFE"><g transform="translate(0.000000, 1.000000)" id="Group-15"><g transform="translate(101.000000, 27.500000)"><path d="M17.6399,4.3179 C17.2479,4.4919 16.8419,4.6289 16.4239,4.7279 C16.8839,4.2909 17.2299,3.7449 17.4249,3.1339 C17.4799,2.9599 17.2909,2.8099 17.1339,2.9029 C16.5539,3.2469 15.9279,3.5059 15.2749,3.6709 C15.2379,3.6799 15.1979,3.6849 15.1589,3.6849 C15.0399,3.6849 14.9249,3.6409 14.8339,3.5609 C14.1389,2.9489 13.2459,2.6119 12.3189,2.6119 C11.9169,2.6119 11.5119,2.6739 11.1139,2.7979 C9.8819,3.1799 8.9309,4.1969 8.6319,5.4509 C8.5199,5.9219 8.4899,6.3929 8.5419,6.8509 C8.5479,6.9039 8.5229,6.9399 8.5079,6.9579 C8.4809,6.9879 8.4429,7.0049 8.4029,7.0049 C8.3979,7.0049 8.3939,7.0049 8.3889,7.0049 C5.6909,6.7539 3.2579,5.4539 1.5379,3.3439 C1.4509,3.2369 1.2819,3.2499 1.2129,3.3699 C0.8759,3.9479 0.6979,4.6079 0.6979,5.2809 C0.6979,6.3109 1.1119,7.2829 1.8309,7.9909 C1.5289,7.9189 1.2359,7.8059 0.9639,7.6549 C0.8319,7.5819 0.6709,7.6759 0.6689,7.8259 C0.6499,9.3569 1.5459,10.7199 2.8889,11.3329 C2.8619,11.3339 2.8349,11.3339 2.8079,11.3339 C2.5949,11.3339 2.3789,11.3129 2.1669,11.2729 C2.0189,11.2449 1.8949,11.3849 1.9409,11.5289 C2.3769,12.8889 3.5479,13.8919 4.9499,14.1199 C3.7869,14.9009 2.4319,15.3129 1.0209,15.3129 L0.5819,15.3129 C0.4459,15.3129 0.3319,15.4009 0.2969,15.5319 C0.2629,15.6619 0.3259,15.7979 0.4409,15.8649 C2.0299,16.7899 3.8429,17.2789 5.6839,17.2789 C7.2959,17.2789 8.8029,16.9589 10.1639,16.3279 C11.4129,15.7499 12.5159,14.9239 13.4429,13.8719 C14.3059,12.8919 14.9819,11.7609 15.4499,10.5099 C15.8959,9.3179 16.1319,8.0449 16.1319,6.8309 L16.1319,6.7729 C16.1319,6.5779 16.2199,6.3939 16.3739,6.2689 C16.9579,5.7949 17.4669,5.2369 17.8859,4.6099 C17.9959,4.4449 17.8219,4.2369 17.6399,4.3179" id="Fill-3"></path></g></g></g></g></svg> 